<svg width="64" height="64" viewBox="0 0 64 64" fill="none" xmlns="http://www.w3.org/2000/svg">
  <path d="M12.517 11.745a15.686 15.686 0 0 0-7.907 13.61V38.64c0 5.614 3.011 10.806 7.907 13.61l11.572 6.642a15.88 15.88 0 0 0 15.813 0l11.58-6.643a15.695 15.695 0 0 0 7.906-13.61V25.356c0-5.615-3.01-10.806-7.907-13.61L39.902 5.103a15.918 15.918 0 0 0-15.813 0l-11.572 6.642z" fill="url(#paint0_linear)"></path>
  <path d="M14.096 13.276A14.518 14.518 0 0 0 6.83 25.86v12.283c0 5.191 2.767 9.99 7.266 12.583l10.634 6.141a14.518 14.518 0 0 0 14.532 0l10.641-6.141c4.5-2.6 7.266-7.392 7.266-12.583V25.859c0-5.19-2.766-9.99-7.266-12.583l-10.64-6.141a14.551 14.551 0 0 0-14.533 0l-10.634 6.141z" fill="url(#paint1_linear)"></path>
  <path fill-rule="evenodd" clip-rule="evenodd" d="M17.227 27.236l14.966.014-.93-1.558.93-1.557H17.228l-.93 1.543.93 1.558zm20.617-3.101l-8.516 14.162H31.2l.93 1.558 8.516-14.162-.93-1.558h-1.872zm5.17 14.162l8.516-14.162h1.873l.929 1.558-8.517 14.162-.93-1.558h-1.872zm-3.094.004l5.087-8.482h-1.873l-.929-1.558-5.086 8.482.929 1.558h1.872zm-14.373-.006H10.588l-.929-1.543.93-1.558h14.965l-.93 1.558.923 1.543zm-1.446-8.634h-10.18l.93 1.558-.93 1.558h10.18l.93-1.558-.93-1.558z" fill="#fff"></path>
  <defs>
    <linearGradient id="paint0_linear" x1="31.999" y1="3" x2="31.999" y2="61" gradientUnits="userSpaceOnUse">
      <stop stop-color="#2B2B5A"></stop>
      <stop offset="1" stop-color="#0F0F3E"></stop>
    </linearGradient>
    <linearGradient id="paint1_linear" x1="32" y1="5.191" x2="32" y2="58.816" gradientUnits="userSpaceOnUse">
      <stop stop-color="#353564"></stop>
      <stop offset="1" stop-color="#212150"></stop>
    </linearGradient>
  </defs>
</svg>