<svg viewBox="0 0 64 64"
  xmlns="http://www.w3.org/2000/svg"
  xmlns:xlink="http://www.w3.org/1999/xlink">
  <defs>
    <path id="path" d="M12.517 11.745a15.686 15.686 0 0 0-7.907 13.61V38.64c0 5.614 3.011 10.806 7.907 13.61l11.572 6.642a15.88 15.88 0 0 0 15.813 0l11.58-6.643a15.695 15.695 0 0 0 7.906-13.61V25.356c0-5.615-3.01-10.806-7.907-13.61L39.902 5.103a15.918 15.918 0 0 0-15.813 0l-11.572 6.642z"></path>
  </defs>
  <mask id="mask" fill="#FFFFFF">
    <use xlink:href="#path"></use>
  </mask>
  <use fill="#3575b9" xlink:href="#path"></use>
  <path fill="#479bf5" d="M14.096 13.276A14.518 14.518 0 0 0 6.83 25.86v12.283c0 5.191 2.767 9.99 7.266 12.583l10.634 6.141a14.518 14.518 0 0 0 14.532 0l10.641-6.141c4.5-2.6 7.266-7.392 7.266-12.583V25.859c0-5.19-2.766-9.99-7.266-12.583l-10.64-6.141a14.551 14.551 0 0 0-14.533 0l-10.634 6.141z"></path>
  <g mask="url(#mask)">
    <g transform="translate(0, 3.3)">
      <polygon fill="#2e65a0" opacity="0.6" points="61.7285155 36.4928906 46.9388672 21.6982031 39.0124219 24.5251172 41.9501953 27.4628906 42.13160155 28.48078125 36.24597655 22.6001953 31.0154297 23.2855078 29.27695315 26.9690625 25.03910155 22.72617185 18.79066405 23.8498828 17.4805078 35.7017578 39.4508203 57.6771095 49.16109375 57.586406"></polygon>
      <g transform="translate(17.1328125, 21.67)" fill="#FFFFFF">
        <path d="M3.08894531 0.0655078125 C1.703203125 0.0655078125 0.3174609375 1.45125 0.3174609375 2.83699219 L0.3174609375 14.0438672 L3.08894531 14.0438672 L3.08894531 8.50089845 L5.8604297 8.50089845 L5.8604297 14.0438672 L8.63191405 14.0438672 L8.63191405 2.83699219 C8.63191405 1.45125 7.24617185 0.0655078125 5.8604297 0.0655078125 L3.08894531 0.0655078125 L3.08894531 0.0655078125 Z M3.08894531 5.72941405 L3.08894531 2.831953125 L5.8604297 2.831953125 L5.8604297 5.72941405 L3.08894531 5.72941405 L3.08894531 5.72941405 Z"></path>
        <path d="M14.42683595 0.0655078125 C13.04109375 0.0655078125 11.65535155 1.45125 11.65535155 2.836992185 L11.65535155 14.0438672 L14.42683595 14.0438672 L14.42683595 8.50089845 L17.1983203 8.50089845 C18.5840625 8.50089845 19.9698047 7.11515625 19.9698047 5.72941405 L19.9698047 2.831953125 C19.9698047 1.446210935 18.5840625 0.06046875 17.1983203 0.06046875 L14.42683595 0.06046875 L14.42683595 0.0655078125 Z M14.42683595 5.72941405 L14.42683595 2.831953125 L17.1983203 2.831953125 L17.1983203 5.72941405 L14.42683595 5.72941405 L14.42683595 5.72941405 Z"></path>
        <polygon points="24.4999219 2.83699219 24.4999219 11.2723828 21.85441405 11.2723828 21.85441405 14.0438672 29.91691405 14.0438672 29.91691405 11.2723828 27.27140625 11.2723828 27.27140625 2.83699219 29.91691405 2.83699219 29.91691405 0.0655078125 21.85441405 0.0655078125 21.85441405 2.83699219"></polygon>
      </g>
    </g>
  </g>
</svg>